<svg xmlns="http://www.w3.org/2000/svg" viewBox="0 0 214.11 214.11"><defs><style>.cls-1{fill:none;}.cls-2{fill:#fff;fill-rule:evenodd;}</style></defs><title>Ресурс 3</title><g id="Слой_2" data-name="Слой 2"><g id="Слой_1-2" data-name="Слой 1"><rect class="cls-1" width="214.11" height="214.11" rx="31.38" ry="31.38"/><path class="cls-2" d="M122.93,57.56V48.28h0a6.11,6.11,0,0,0,6.1-6.09V37A6.11,6.11,0,0,0,123,31H91.11A6.11,6.11,0,0,0,85,37v5.15a6.11,6.11,0,0,0,6.09,6.09v9.3a63.8,63.8,0,1,0,31.82,0ZM99,48.28h16.1q0,7.49,0,15c0,2.93-.14,5.29,1.75,7.53,1.6,1.89,3.17,2.3,5.52,3.09a48,48,0,1,1-63.29,45.51c0-21.28,13.6-40.16,33-45.62a8.55,8.55,0,0,0,4.79-3.29C98.6,68.31,99,66.11,99,63.15Z"/></g></g></svg>